<svg width="106.337" height="24.504" viewBox="0 0 106.337 24.504" fill="none" xmlns="http://www.w3.org/2000/svg"><path d="M5.592 19.992q-1.824 0-3.048-.648T.696 17.352Q.072 15.984 0 13.824l3.672-.552q.024 1.248.216 2.016.216.768.576 1.104.384.336.912.336.672 0 .864-.456.216-.456.216-.96 0-1.2-.576-2.016-.576-.84-1.56-1.68l-1.68-1.464A9.8 9.8 0 0 1 .768 8.04Q.024 6.84.024 5.088q0-2.472 1.464-3.768Q2.952 0 5.472 0q1.56 0 2.496.528.96.528 1.44 1.392.504.84.672 1.8.192.936.216 1.8L6.6 5.976a12 12 0 0 0-.12-1.488q-.072-.648-.336-.984-.264-.36-.816-.36-.6 0-.888.504a2.16 2.16 0 0 0-.264 1.008q0 1.08.504 1.776.528.672 1.368 1.416l1.608 1.416q1.272 1.08 2.136 2.448.888 1.368.888 3.384a5.07 5.07 0 0 1-.624 2.496 4.56 4.56 0 0 1-1.776 1.752q-1.128.648-2.688.648m9.808-.048q-1.056 0-1.776-.504t-1.08-1.272a3.85 3.85 0 0 1-.36-1.608q0-1.296.504-2.184a4.9 4.9 0 0 1 1.368-1.488q.84-.6 1.848-1.008a28 28 0 0 1 1.992-.768V9.72q0-.36-.072-.624a.8.8 0 0 0-.24-.432q-.168-.168-.504-.168t-.528.144a.8.8 0 0 0-.24.408q-.072.24-.096.552l-.096 1.008-3.648-.144q.12-2.496 1.32-3.672 1.224-1.2 3.648-1.2 2.112 0 3.144 1.176 1.056 1.152 1.056 3v6.48q0 .864.024 1.512.048.648.096 1.128l.12.816h-3.504a70 70 0 0 0-.168-1.2q-.096-.648-.144-.768a3.46 3.46 0 0 1-.912 1.536q-.648.672-1.752.672m1.392-2.64q.24 0 .432-.096.216-.096.384-.264t.288-.336v-3.792q-.48.288-.888.6a3.4 3.4 0 0 0-.696.648q-.288.36-.456.792a2.8 2.8 0 0 0-.144.936q0 .696.288 1.104a.92.92 0 0 0 .792.408m9.614 2.64q-.84 0-1.44-.408-.576-.432-.864-1.176a4.6 4.6 0 0 1-.288-1.656V5.832h3.912v10.416q0 .504.168.792.192.264.648.264.264 0 .552-.12.288-.144.6-.312V5.832h3.888v13.872h-3.888v-1.272a6.4 6.4 0 0 1-1.584 1.104 3.76 3.76 0 0 1-1.704.408m9.814-.24V.264h3.888v19.44zm6.634 0V.264h4.92q2.544 0 3.96.648 1.416.624 1.992 1.992.576 1.344.576 3.504v7.056q0 2.184-.576 3.576-.576 1.368-1.992 2.016-1.392.648-3.912.648zm4.296-2.976h.672q.984 0 1.416-.288t.528-.864q.12-.576.12-1.44V5.664q0-.864-.144-1.392-.12-.528-.552-.768t-1.392-.24h-.648zm14.086 3.216q-1.512 0-2.592-.528a3.86 3.86 0 0 1-1.656-1.584q-.576-1.056-.576-2.52v-5.088q0-1.488.576-2.52a3.72 3.72 0 0 1 1.656-1.56q1.104-.552 2.592-.552 1.536 0 2.544.528 1.032.528 1.536 1.56.528 1.032.528 2.544v2.784h-5.568v2.664q0 .528.12.864t.336.48a.9.9 0 0 0 .504.144q.288 0 .504-.12a.88.88 0 0 0 .36-.432q.144-.288.144-.792v-1.464h3.6v1.344q0 2.112-1.224 3.192-1.224 1.056-3.384 1.056m-.96-8.76h1.968V9.792q0-.552-.144-.864-.12-.312-.36-.432-.216-.12-.528-.12a.9.9 0 0 0-.504.144q-.192.144-.312.504-.12.336-.12.984zm11.97 8.76q-1.824 0-3.048-.816-1.2-.816-1.968-2.664l2.664-1.176q.384.936.888 1.488.528.528 1.152.528.456 0 .672-.192a.64.64 0 0 0 .24-.528q0-.552-.432-1.008-.408-.456-1.488-1.344l-1.008-.84q-1.104-.936-1.752-1.8-.624-.888-.624-2.184 0-1.128.576-1.992.6-.864 1.584-1.344t2.112-.48q1.704 0 2.856.936t1.608 2.64l-2.52 1.152a4.6 4.6 0 0 0-.408-.912 2.8 2.8 0 0 0-.648-.768 1.18 1.18 0 0 0-.792-.312q-.384 0-.624.216-.216.216-.216.576 0 .456.504.984.528.528 1.44 1.272l.984.864q.6.504 1.176 1.08t.936 1.272q.384.696.384 1.584 0 1.2-.6 2.064-.6.84-1.584 1.272a5 5 0 0 1-2.064.432m5.924-.24V5.832h3.912v13.872zM78.146 3.48V.768h3.936V3.48zm10.863 21.024q-1.56 0-2.712-.312t-1.8-.936q-.624-.624-.624-1.584 0-.648.264-1.176.288-.504.768-.888a5.3 5.3 0 0 1 1.128-.696q-.912-.264-1.416-.792t-.504-1.416q0-.84.408-1.44.408-.624 1.128-1.248a4 4 0 0 1-1.032-1.464q-.336-.888-.336-2.136 0-1.56.576-2.64a3.77 3.77 0 0 1 1.68-1.632q1.128-.552 2.712-.552 1.08 0 1.896.264a3.6 3.6 0 0 1 1.392.816q.264-.408.696-.792t.984-.648l.504-.24.912 1.872a8 8 0 0 0-.6.24l-.816.36q-.408.192-.744.384.264.528.408 1.2t.144 1.392q0 1.488-.552 2.568a3.7 3.7 0 0 1-1.584 1.656q-1.056.552-2.64.552-.672 0-1.272-.096-.6-.12-1.104-.288a4 4 0 0 0-.264.408.95.95 0 0 0-.096.432q0 .288.288.456t1.032.264l3.648.408q1.776.192 2.616 1.152.84.936.84 2.472 0 1.32-.6 2.232-.576.912-1.896 1.368-1.296.48-3.432.48m.504-2.832q1.32 0 2.016-.216.72-.216.72-.888a.8.8 0 0 0-.192-.552q-.192-.192-.648-.312-.432-.144-1.248-.216l-2.568-.264q-.24.168-.432.384a2.4 2.4 0 0 0-.288.408q-.096.24-.096.504 0 .576.624.864t2.112.288m-.264-8.784q.336 0 .552-.12a.8.8 0 0 0 .312-.432q.12-.288.168-.768t.048-1.152q0-.696-.048-1.152a2.8 2.8 0 0 0-.168-.768q-.096-.312-.312-.432a1 1 0 0 0-.552-.144 1 1 0 0 0-.552.144.8.8 0 0 0-.336.408 3.7 3.7 0 0 0-.144.768q-.048.48-.048 1.176 0 .672.048 1.152.048.456.144.768a.93.93 0 0 0 .336.432q.216.12.552.12m7.272 6.816V5.832h3.912v1.392a6.7 6.7 0 0 1 1.584-1.2 3.8 3.8 0 0 1 1.752-.432q.864 0 1.416.432.576.408.864 1.152.288.72.288 1.656v10.872h-3.888V9.384q0-.504-.168-.768t-.624-.264q-.24 0-.576.144-.312.12-.648.36v10.848z" fill="#EEE" fill-rule="evenodd"/></svg>