<svg width="256.483" height="368" viewBox="0 0 256.483 368" fill="none" xmlns="http://www.w3.org/2000/svg"><ellipse cx="95.292" cy="356" rx="95" ry="12" fill="#000" fill-opacity=".5"/><rect x="119.488" y="255.056" rx="3.515" width="45.031" height="92.944" fill="#00ADB5"/><rect x="119.488" y="255.056" rx="3.515" width="45.031" height="92.944" stroke="#000" stroke-width="1.645" stroke-linejoin="round"/><rect x="1.687" y="281.895" rx="3.515" width="45.031" height="66.105" fill="#EEE"/><rect x="1.687" y="281.895" rx="3.515" width="45.031" height="66.105" stroke="#000" stroke-width="1.645" stroke-linejoin="round"/><rect x="210.63" y="152.026" rx="3.515" width="45.031" height="195.974" fill="#00ADB5"/><rect x="210.63" y="152.026" rx="3.515" width="45.031" height="195.974" stroke="#000" stroke-width="1.645" stroke-linejoin="round"/><path d="M61.46 128.169h46.3s-7.379 67.433-17.422 78.489c-10.042 11.056-62.601 41.376-62.601 41.376l-17.7-10.864 32.997-51.967s-3.629-20.265 18.427-57.034" fill="#00ADB5"/><path d="M107.76 128.169s-7.379 67.433-17.422 78.489c-10.042 11.056-62.601 41.376-62.601 41.376l-17.7-10.864 32.997-51.967s-3.629-20.265 18.427-57.034z" stroke="#000" stroke-width="1.399"/><path d="m28.485 247.426-18.448-10.253-9.338 10.053s15.74 9.123 26.722 12.699l-4.65-6.135z" fill="#EEE"/><path d="m28.485 247.426-5.715 6.364 4.651 6.135C16.44 256.349.7 247.226.7 247.226l9.338-10.053z" stroke="#000" stroke-width="1.399" stroke-linejoin="round"/><path d="m61.658 127.186 50.587-.067s28.122 24.73 31.665 39.239c3.543 14.51-.497 67.166-.497 67.166l-20.446 9.04-21.108-55.617s-22.07-20.906-40.2-59.761" fill="#00ADB5"/><path d="M112.245 127.119s28.122 24.73 31.665 39.239c3.543 14.51-.497 67.166-.497 67.166l-20.446 9.04-21.108-55.617s-22.07-20.906-40.2-59.761z" stroke="#000" stroke-width="1.399"/><mask id="a" fill="#fff"><path d="M106.028 44.685a10.5 10.5 0 0 0 3.246-1.886c7.548-6.43 4.312-16.132-.256-21.183S76.506 18.58 89.688 41.98l.17.101c1.473 4.69.23 8.712-1.26 13.538-.609 1.968-1.259 4.07-1.782 6.406l13.981-1.001c3.842-5.218 5.299-10.478 5.231-16.338" clip-rule="evenodd" fill-rule="evenodd"/></mask><path d="M106.028 44.685a10.5 10.5 0 0 0 3.246-1.886c7.548-6.43 4.312-16.132-.256-21.183S76.506 18.58 89.688 41.98l.17.101c1.473 4.69.23 8.712-1.26 13.538-.609 1.968-1.259 4.07-1.782 6.406l13.981-1.001c3.842-5.218 5.299-10.478 5.231-16.338" clip-rule="evenodd" fill="#F5B9AB" fill-rule="evenodd" mask="url(#a)"/><path d="M105.746 43.912q1.669-.609 2.995-1.739 4.84-4.123 4.131-10.39-.605-5.347-4.464-9.615-1.567-1.732-6.233-1.97-5.046-.257-9.127 1.674-4.68 2.216-5.745 6.54-1.312 5.33 3.102 13.163l-.717.404.42-.707.17.101q.13.078.225.197.094.119.14.263 1.55 4.935-1.26 14.028-1.248 4.04-1.764 6.343l-.803-.18-.059-.82 13.981-1.002.059.82-.663-.487q5.175-7.026 5.071-15.84 0-.064.009-.127t.027-.124q.019-.06.046-.117.028-.058.064-.11t.08-.098.094-.085.106-.07q.055-.03.115-.052m.564 1.545-.282-.772.822-.01q.11 9.366-5.391 16.835-.107.146-.265.233t-.339.1l-13.98 1.002q-.12.008-.239-.018-.079-.018-.153-.05-.074-.033-.14-.08t-.122-.105-.1-.127-.072-.144q-.03-.076-.043-.156-.014-.08-.012-.16.002-.082.02-.16.53-2.368 1.797-6.47 2.659-8.603 1.262-13.049l.785-.246-.42.707-.17-.101q-.189-.112-.297-.303-4.733-8.402-3.265-14.364 1.252-5.084 6.639-7.633 4.454-2.11 9.913-1.83 5.347.272 7.37 2.509 4.214 4.66 4.879 10.533.807 7.136-4.699 11.827-1.552 1.322-3.498 2.032" fill="#000"/><path d="M87.18 27.85c-2.188 3.043.168 10.56 1.907 12.44-14.406-7.993-5.286-26.028-.84-22.74.723-6.667 8.374-9.02 13.59-3.38 13.077-10.56 13.765 7.433 9.149 10.17-4.615 2.736-10.215.13-13.121 1.542-2.906 1.41-4.7 9.958-5.641 5.214-.942-4.744-2.31-7.052-5.044-3.247" fill="#00ADB5"/><path d="M87.18 27.85c2.734-3.806 4.102-1.498 5.044 3.246s2.735-3.803 5.64-5.214c2.907-1.412 8.507 1.194 13.122-1.542 4.616-2.737 3.928-20.73-9.149-10.17-5.216-5.64-12.867-3.287-13.59 3.38-4.446-3.288-13.566 14.747.84 22.74-1.739-1.88-4.095-9.397-1.907-12.44Z" stroke="#000" stroke-width="1.645"/><path d="M113.934 128.265c15.079-10.029 8.786-44.684 6.641-54.537-.386-1.772-.957-3.473-1.651-5.15-5.7-13.778-19.761-24.876-33.228-18.475-28.686 13.633-24.422 57.12-24.15 78.488z" fill="#EEE"/><path d="m113.934 128.265-52.389.326c-.27-21.373-4.537-64.876 24.17-78.498 13.472-6.392 27.509 4.707 33.209 18.486.694 1.676 1.27 3.4 1.656 5.172 2.15 9.883 8.421 44.493-6.646 54.514Z" stroke="#000" stroke-width="1.645" stroke-linejoin="round"/><path d="m147.187 66.603 12.102 14.77s-38.131 40.12-55.247 41.641c-9.392.834-27.88-27.88-27.88-27.88l17.066-26.53 13.18 26.53z" fill="#EEE" fill-rule="evenodd"/><path d="m94.131 70.54 12.162 23.779 40.893-27.716 12.103 14.77s-35.946 39.872-56.952 41.738c-6.611.588-25.872-28.265-25.872-28.265" stroke="#000" stroke-width="1.645"/><path d="m151.211 63.938-4.794 3.076L158.45 82.26l3.785-3.066a9.426 9.426 0 0 0-11.024-15.256" fill="#F5B9AB"/><path d="M151.211 63.938a9.425 9.425 0 0 1 11.024 15.256l-3.785 3.066-12.033-15.246z" stroke="#000" stroke-width="1.645" stroke-linejoin="round"/><path d="m143.661 231.606-20.694 10.789 3.56 13.482 27.631-17.016-8.13 1.104z" fill="#EEE"/><path d="m143.661 231.606 2.367 8.359 8.13-1.104-27.631 17.016-3.56-13.482z" stroke="#000" stroke-width="1.399" stroke-linejoin="round"/></svg>