<svg width="1439" height="846" viewBox="0 0 1439 846" fill="none" xmlns="http://www.w3.org/2000/svg"><path d="M1436 170c-89.23 14.843-259.09 99.224-224.73 317.998S1099.41 813.155 1022 839" stroke="url(#a)" stroke-width="6"/><path d="M1441.5 420.5c-246.83-12.167-739.4 54.4-735 418" stroke="url(#b)" stroke-width="6"/><path d="M928.193 0c-3.281 140.127 34.016 433.314 209.447 485.053C1313.08 536.792 1316.78 746.576 1296.7 845" stroke="url(#c)" stroke-width="6"/><path d="M1.5 274c103 38.167 291.9 203.8 223.5 561" stroke="url(#d)" stroke-opacity=".06" stroke-width="6"/><defs><linearGradient id="a" x1="1386.5" y1="195" x2="1131" y2="761" gradientUnits="userSpaceOnUse"><stop stop-color="#343045"/><stop offset=".276" stop-color="#8176AF"/><stop offset=".74" stop-color="#C0B7E8"/><stop offset="1" stop-color="#343045"/></linearGradient><linearGradient id="b" x1="1403.5" y1="412" x2="717.5" y2="777" gradientUnits="userSpaceOnUse"><stop stop-color="#343045"/><stop offset=".214" stop-color="#C0B7E8"/><stop offset=".719" stop-color="#8176AF"/><stop offset="1" stop-color="#343045"/></linearGradient><linearGradient id="c" x1="941.5" y1="39.5" x2="1288" y2="814" gradientUnits="userSpaceOnUse"><stop offset=".01" stop-color="#343045"/><stop offset=".229" stop-color="#C0B7E8"/><stop offset=".776" stop-color="#8176AF"/><stop offset="1" stop-color="#343045"/></linearGradient><linearGradient id="d" x1="-23.5" y1="233.5" x2="333" y2="873.5" gradientUnits="userSpaceOnUse"><stop stop-color="#343045"/><stop offset=".151" stop-color="#C0B7E8"/><stop offset=".76" stop-color="#8176AF"/><stop offset=".974" stop-color="#343045"/></linearGradient></defs></svg>