<svg width="76" height="46" viewBox="0 0 76 46" fill="none" xmlns="http://www.w3.org/2000/svg"><defs><linearGradient id="b" x1="5.786" y1="0" x2="5.786" y2="46" gradientUnits="userSpaceOnUse"><stop stop-color="#C0B7E8"/><stop offset="1" stop-color="#8176AF"/></linearGradient><linearGradient id="c" x1="21.803" y1="0" x2="21.803" y2="46" gradientUnits="userSpaceOnUse"><stop stop-color="#C0B7E8"/><stop offset="1" stop-color="#8176AF"/></linearGradient><linearGradient id="d" x1="37.804" y1="0" x2="37.804" y2="46" gradientUnits="userSpaceOnUse"><stop stop-color="#C0B7E8"/><stop offset="1" stop-color="#8176AF"/></linearGradient><linearGradient id="e" x1="53.02" y1="0" x2="53.02" y2="46" gradientUnits="userSpaceOnUse"><stop stop-color="#C0B7E8"/><stop offset="1" stop-color="#8176AF"/></linearGradient><linearGradient id="f" x1="69.037" y1="0" x2="69.037" y2="46" gradientUnits="userSpaceOnUse"><stop stop-color="#C0B7E8"/><stop offset="1" stop-color="#8176AF"/></linearGradient><clipPath id="a"><path fill="#fff" fill-opacity="0" d="M0 0h76v46H0z"/></clipPath></defs><path d="M0 0h76v46H0z"/><g clip-path="url(#a)"><path d="M0 0h2.32v27.405h6.93V0h2.322v46H9.25V29.713H2.32V46H0z" fill="url(#b)"/><path d="M28.733 0 22.98 29.713V46h-2.321V29.713L14.873 0h2.125l4.838 24.772L26.64 0z" fill="url(#c)"/><path d="M38.997 46h-6.963V0h6.93c2.583 0 4.61 2.048 4.61 4.584v36.8C43.605 43.887 41.546 46 38.996 46M34.355 2.308v41.384h4.61c1.241 0 2.32-1.04 2.32-2.308v-36.8c0-1.236-1.046-2.308-2.32-2.308h-4.61z" fill="url(#d)"/><path d="M58.806 46H56.42l-4.086-16.287h-2.779V46h-2.32V0h6.93a4.57 4.57 0 0 1 4.608 4.584v20.513c0 2.308-1.798 4.258-4.086 4.518zm-9.25-18.595h4.608c1.242 0 2.321-1.04 2.321-2.308V4.584c0-1.236-1.046-2.308-2.32-2.308h-4.61z" fill="url(#e)"/><path d="M65.801 29.713 64.2 46h-2.093L66.75 0h4.61l4.608 46h-2.092l-1.601-16.287zm3.694-27.405h-.915l-2.517 25.097h5.95z" fill="url(#f)"/></g></svg>