<svg width="101.991" height="102.926" viewBox="0 0 101.991 102.926" fill="none" xmlns="http://www.w3.org/2000/svg"><defs><linearGradient id="a" x1="50.995" y1="0" x2="50.995" y2="102.926" gradientUnits="userSpaceOnUse"><stop stop-color="#C0B7E8"/><stop offset="1" stop-color="#8176AF"/></linearGradient></defs><path d="M100.771 41.257c1.336 7.717-6.86 5.662-6.86 5.662-3.43-9.665-8.918-8.764-8.918-8.764 4.297 3.138 4.622 5.807 4.622 5.807-11.446-8.115-27.008-1.587-32.93 1.478-3.321-4.688-10.037-15.183-7.654-19.943 3.141-6.24 9.532-2.67 9.532-2.67 12.926-.216 12.204-4.832 12.204-4.832-3.43 2.669-13.54 0-13.54 0 8.774 0 12.493-3.57 12.493-3.57-6.535 1.623-13.829-5.338-13.829-5.338-2.672-13.668-15.02-7.862-15.02-7.862 7.727-1.334 5.669 6.852 5.669 6.852-9.677 3.427-8.774 8.908-8.774 8.908 3.141-4.291 5.813-4.616 5.813-4.616-8.846 12.442-.325 29.753 2.203 34.261-4.622 3.21-15.454 10.279-20.328 7.826-6.247-3.137-2.672-9.52-2.672-9.52-.145-12.912-4.766-12.19-4.766-12.19 2.672 3.426 0 13.524 0 13.524 0-8.764-3.575-12.479-3.575-12.479 1.625 6.528-5.343 13.813-5.343 13.813-13.685 2.669-7.871 15.003-7.871 15.003-1.336-7.718 6.86-5.662 6.86-5.662 3.43 9.665 8.918 8.763 8.918 8.763-4.297-3.137-4.622-5.806-4.622-5.806 12.096 8.583 28.813.793 33.868-1.947 3.394 4.868 9.713 14.894 7.366 19.546-3.142 6.24-9.532 2.67-9.532 2.67-12.926.143-12.204 4.76-12.204 4.76 3.43-2.67 13.54 0 13.54 0-8.774 0-12.493 3.57-12.493 3.57 6.535-1.623 13.829 5.338 13.829 5.338 2.671 13.668 15.02 7.862 15.02 7.862-7.727 1.334-5.669-6.853-5.669-6.853 9.676-3.426 8.774-8.907 8.774-8.907-3.142 4.291-5.813 4.616-5.813 4.616 8.665-12.154.686-28.996-2.022-33.937 4.91-3.426 14.84-9.557 19.425-7.249 6.246 3.138 2.672 9.521 2.672 9.521.144 12.911 4.766 12.19 4.766 12.19-2.672-3.426 0-13.524 0-13.524 0 8.763 3.574 12.478 3.574 12.478-1.625-6.528 5.344-13.813 5.344-13.813 13.756-2.632 7.943-14.966 7.943-14.966" fill="url(#a)"/></svg>